<svg width="62" height="45" fill="none" xmlns="http://www.w3.org/2000/svg"><g clip-path="url(#a)" fill="#fff"><path d="M3.207.922h58.772v8.326c0 1.751-1.437 3.173-3.207 3.173H0V4.095C0 2.344 1.437.922 3.207.922ZM0 13.42l20.7 5.88h20.58L20.7 13.42H0Zm3.207 6.88h38.072v8.326c0 1.751-1.437 3.173-3.207 3.173H0v-8.325C0 21.722 1.437 20.3 3.207 20.3ZM0 32.799l10.305 3.092H20.72l-10.289-3.092H0Zm3.207 4.091h17.492v4.014c0 1.752-1.436 3.173-3.206 3.173H0v-4.014c0-1.751 1.437-3.173 3.207-3.173Z"/></g><defs><clipPath id="a"><path fill="#fff" transform="translate(0 .922)" d="M0 0h62v43.155H0z"/></clipPath></defs></svg>