<svg width="238" height="45" fill="none" xmlns="http://www.w3.org/2000/svg"><g clip-path="url(#a)" fill="#fff"><path d="M3.207.922h58.772v8.326c0 1.751-1.437 3.173-3.207 3.173H0V4.096C0 2.344 1.437.922 3.207.922ZM0 13.42l20.7 5.88h20.58L20.7 13.42H0Zm3.207 6.88h38.072v8.326c0 1.751-1.437 3.173-3.207 3.173H0v-8.325C0 21.722 1.437 20.3 3.207 20.3ZM0 32.799l10.305 3.092H20.72l-10.289-3.092H0Zm3.207 4.091h17.492v4.014c0 1.752-1.436 3.174-3.206 3.174H0v-4.014c0-1.752 1.437-3.173 3.207-3.173Z"/></g><path d="M74.048 31 68 9.88h7.04l2.976 15.936L81.344 9.88h5.76l3.488 15.84 2.912-15.84h6.784L94.24 31H87.2l-2.048-9.024-.864-5.28h-.096l-.864 5.28L81.28 31h-7.232Zm33.895-16.32c1.749 0 3.275.33 4.576.992a7.055 7.055 0 0 1 3.04 2.816c.725 1.237 1.088 2.741 1.088 4.512 0 1.75-.363 3.253-1.088 4.512a7.257 7.257 0 0 1-3.04 2.848c-1.301.64-2.827.96-4.576.96-1.707 0-3.221-.32-4.544-.96a7.47 7.47 0 0 1-3.072-2.848c-.725-1.259-1.088-2.763-1.088-4.512 0-1.77.363-3.275 1.088-4.512a7.259 7.259 0 0 1 3.072-2.816c1.323-.661 2.837-.992 4.544-.992Zm0 4.448c-.469 0-.875.117-1.216.352-.32.235-.565.64-.736 1.216-.171.576-.256 1.344-.256 2.304 0 .96.085 1.728.256 2.304.171.555.416.96.736 1.216.341.235.747.352 1.216.352.491 0 .896-.117 1.216-.352.32-.256.565-.661.736-1.216.171-.576.256-1.344.256-2.304 0-.96-.085-1.728-.256-2.304-.171-.576-.416-.981-.736-1.216s-.725-.352-1.216-.352ZM119.068 31V15h5.792l.192 3.744c.363-1.259.928-2.25 1.696-2.976.789-.725 1.813-1.088 3.072-1.088.448 0 .811.043 1.088.128.277.064.48.15.608.256l-.576 5.248a4.558 4.558 0 0 0-.832-.224 6.48 6.48 0 0 0-1.184-.096c-.64 0-1.216.117-1.728.352a2.789 2.789 0 0 0-1.216 1.056c-.299.448-.448 1.024-.448 1.728V31h-6.464Zm32.817-16-7.968 8.64-1.152.192-4.32 5.056-.096-6.4L144.845 15h7.04Zm-12.384-6.592V31h-6.464V8.408h6.464Zm5.472 11.136L152.237 31h-7.104l-4.192-7.648 4.032-3.808Zm25.236-7.264h-12.224v6.816h9.536v2.4h-9.536V31h-2.56V9.88h14.784v2.4Zm6.699-4.64v19.296c0 .81.149 1.376.448 1.696.299.299.779.448 1.44.448.427 0 .779-.032 1.056-.096s.651-.181 1.12-.352l-.416 2.24c-.341.15-.715.256-1.12.32a6.04 6.04 0 0 1-1.248.128c-1.301 0-2.272-.352-2.912-1.056-.619-.704-.928-1.781-.928-3.232V7.64h2.56Zm13.973 7.04c1.515 0 2.848.33 4 .992 1.174.661 2.091 1.621 2.752 2.88.662 1.237.992 2.72.992 4.448 0 1.728-.33 3.221-.992 4.48-.661 1.237-1.578 2.187-2.752 2.848-1.152.661-2.485.992-4 .992-1.493 0-2.826-.33-4-.992-1.173-.661-2.09-1.61-2.752-2.848-.661-1.259-.992-2.752-.992-4.48 0-1.728.331-3.21.992-4.448.662-1.259 1.579-2.219 2.752-2.88 1.174-.661 2.507-.992 4-.992Zm0 2.208c-1.088 0-2.016.245-2.784.736-.768.49-1.365 1.195-1.792 2.112-.405.896-.608 1.984-.608 3.264 0 1.259.203 2.347.608 3.264.427.917 1.024 1.621 1.792 2.112.768.49 1.696.736 2.784.736 1.088 0 2.016-.245 2.784-.736.768-.49 1.355-1.195 1.76-2.112.427-.917.64-2.005.64-3.264 0-1.28-.213-2.368-.64-3.264-.405-.917-.992-1.621-1.76-2.112-.768-.49-1.696-.736-2.784-.736ZM223.009 15h2.848l-5.568 16h-2.56l-4.512-12.736L208.961 31h-2.56l-5.568-16h2.848l4.032 13.024L212.065 15h2.56l4.352 13.024L223.009 15Z" fill="#fff"/><defs><clipPath id="a"><path fill="#fff" transform="translate(0 .922)" d="M0 0h62v43.155H0z"/></clipPath></defs></svg>