<svg width="119" height="21" fill="none" xmlns="http://www.w3.org/2000/svg"><g clip-path="url(#a)" fill="#fff"><path d="M0 1.307h4.47l3.22 13.172 3.59-13.172h3.459l3.591 13.172 3.22-13.172h4.47l-5.135 18.816h-4.842L13.01 9.021 9.977 20.123H5.135L0 1.307Zm25.487 12.096c0-4.006 3.14-7.096 7.05-7.096 3.91 0 7.05 3.091 7.05 7.096s-3.14 7.097-7.05 7.097c-3.91 0-7.05-3.091-7.05-7.097Zm10.11 0c0-1.909-1.331-3.172-3.06-3.172-1.73 0-3.06 1.263-3.06 3.172 0 1.909 1.33 3.172 3.06 3.172 1.729 0 3.06-1.263 3.06-3.172ZM49.83 6.414v4.57c-1.65-.27-3.99.403-3.99 3.064v6.075h-3.991V6.683h3.99v2.392c.532-1.8 2.315-2.661 3.99-2.661Zm10.11 13.709-4.258-5.94v5.94h-3.99V1.307h3.99V12.57l3.99-5.887h4.656l-4.842 6.72 4.976 6.72h-4.524.001ZM68.186 2.65v7.527h8.593v1.344h-8.593v8.602h-1.41V1.307h10.322V2.65h-8.912ZM80.29.5h1.33v19.623h-1.33V.5Zm4.523 12.903c0-3.979 3.113-7.016 6.997-7.016s6.97 3.037 6.97 7.016-3.112 7.016-6.97 7.016c-3.858 0-6.997-3.037-6.997-7.016Zm12.61 0c0-3.199-2.447-5.726-5.613-5.726-3.166 0-5.64 2.527-5.64 5.726s2.474 5.726 5.64 5.726c3.166 0 5.614-2.527 5.614-5.726ZM119 6.683l-4.204 13.44h-1.463l-3.698-11.451-3.698 11.451h-1.464l-4.203-13.44h1.41l3.538 11.693 3.725-11.693h1.384l3.724 11.693 3.539-11.693H119Z"/></g><defs><clipPath id="a"><path fill="#fff" transform="translate(0 .5)" d="M0 0h119v20H0z"/></clipPath></defs></svg>